<svg width="21" height="24" viewBox="0 0 21 24" fill="none" xmlns="http://www.w3.org/2000/svg">
<path d="M6.128 9.934C5.90786 9.41803 5.57455 8.95813 5.15273 8.58833C4.73091 8.21852 4.23135 7.94826 3.69101 7.79752C3.15067 7.64679 2.58335 7.61943 2.03102 7.71749C1.47868 7.81554 0.955443 8.03649 0.5 8.364M14.852 9.934C15.0721 9.41803 15.4054 8.95813 15.8273 8.58833C16.2491 8.21852 16.7486 7.94826 17.289 7.79752C17.8293 7.64679 18.3966 7.61943 18.949 7.71749C19.5013 7.81554 20.0246 8.03649 20.48 8.364M0.5 4.852C0.5 5.43123 0.730099 5.98674 1.13968 6.39632C1.54926 6.8059 2.10477 7.036 2.684 7.036C3.26323 7.036 3.81874 6.8059 4.22832 6.39632C4.6379 5.98674 4.868 5.43123 4.868 4.852C4.868 4.27277 4.6379 3.71726 4.22832 3.30768C3.81874 2.8981 3.26323 2.668 2.684 2.668C2.10477 2.668 1.54926 2.8981 1.13968 3.30768C0.730099 3.71726 0.5 4.27277 0.5 4.852ZM16.112 4.852C16.112 5.43123 16.3421 5.98674 16.7517 6.39632C17.1613 6.8059 17.7168 7.036 18.296 7.036C18.8752 7.036 19.4307 6.8059 19.8403 6.39632C20.2499 5.98674 20.48 5.43123 20.48 4.852C20.48 4.27277 20.2499 3.71726 19.8403 3.30768C19.4307 2.8981 18.8752 2.668 18.296 2.668C17.7168 2.668 17.1613 2.8981 16.7517 3.30768C16.3421 3.71726 16.112 4.27277 16.112 4.852ZM7.153 3.837C7.153 4.27522 7.23931 4.70915 7.40701 5.11401C7.57471 5.51888 7.82052 5.88675 8.13038 6.19662C8.44025 6.50648 8.80812 6.75229 9.21299 6.91999C9.61785 7.08769 10.0518 7.174 10.49 7.174C10.9282 7.174 11.3622 7.08769 11.767 6.91999C12.1719 6.75229 12.5397 6.50648 12.8496 6.19662C13.1595 5.88675 13.4053 5.51888 13.573 5.11401C13.7407 4.70915 13.827 4.27522 13.827 3.837C13.827 2.95197 13.4754 2.10319 12.8496 1.47738C12.2238 0.851576 11.375 0.5 10.49 0.5C9.60497 0.5 8.75619 0.851576 8.13038 1.47738C7.50458 2.10319 7.153 2.95197 7.153 3.837Z" stroke="white" stroke-linecap="round" stroke-linejoin="round"/>
<path d="M16.2628 11.21C15.5311 10.4063 14.6397 9.76424 13.6456 9.3249C12.6515 8.88556 11.5766 8.65863 10.4898 8.65863C9.40294 8.65863 8.32807 8.88556 7.33397 9.3249C6.33987 9.76424 5.44846 10.4063 4.7168 11.21M14.4448 13.606C14.4283 14.6442 14.0043 15.6342 13.2643 16.3626C12.5243 17.0909 11.5276 17.4991 10.4893 17.4991C9.45099 17.4991 8.45431 17.0909 7.71431 16.3626C6.9743 15.6342 6.5503 14.6442 6.5338 13.606" stroke="white" stroke-linecap="round" stroke-linejoin="round"/>
<path d="M19.884 13.602V15.089L18.184 15.429C17.9883 16.2533 17.6597 17.0403 17.211 17.759L18.18 19.203L16.08 21.303L14.637 20.334C13.9174 20.7852 13.1291 21.1159 12.303 21.313L11.967 23.004H9.00696L8.66996 21.313C7.8442 21.1158 7.05617 20.7851 6.33696 20.334L4.88996 21.299L2.78996 19.199L3.75896 17.755C3.30989 17.0364 2.98091 16.2494 2.78496 15.425L1.08496 15.085V13.602" stroke="white" stroke-linecap="round" stroke-linejoin="round"/>
</svg>
