<svg width="14" height="18" viewBox="0 0 14 18" fill="none" xmlns="http://www.w3.org/2000/svg">
<path d="M2.251 1.49944C2.15251 1.49944 2.05499 1.51884 1.96399 1.55653C1.873 1.59422 1.79032 1.64947 1.72067 1.71911C1.65103 1.78876 1.59579 1.87143 1.55809 1.96243C1.5204 2.05342 1.501 2.15095 1.501 2.24944C1.501 2.34793 1.5204 2.44546 1.55809 2.53645C1.59579 2.62745 1.65103 2.71013 1.72067 2.77977C1.79032 2.84942 1.873 2.90466 1.96399 2.94235C2.05499 2.98004 2.15251 2.99944 2.251 2.99944C2.44992 2.99944 2.64068 2.92042 2.78133 2.77977C2.92199 2.63912 3.001 2.44835 3.001 2.24944C3.001 2.05053 2.92199 1.85976 2.78133 1.71911C2.64068 1.57846 2.44992 1.49944 2.251 1.49944ZM0.00100462 2.24944C0.00112922 1.83697 0.114632 1.43248 0.32911 1.08016C0.543587 0.727835 0.850785 0.44125 1.21713 0.251721C1.58348 0.0621917 1.99487 -0.0229881 2.40635 0.00549063C2.81784 0.0339693 3.21358 0.17501 3.55032 0.4132C3.88706 0.65139 4.15185 0.977562 4.31575 1.35607C4.47965 1.73458 4.53634 2.15085 4.47965 2.55941C4.42295 2.96796 4.25504 3.35307 3.99426 3.67264C3.73349 3.99221 3.38988 4.23395 3.001 4.37144V8.27744C3.08767 8.21344 3.17767 8.15411 3.27101 8.09944C4.22001 7.52744 5.43601 7.36044 6.46901 7.21944L6.64801 7.19444C7.809 7.03244 8.75 6.87244 9.425 6.41744C9.93 6.07544 10.362 5.50744 10.473 4.36144C9.9751 4.17813 9.558 3.82475 9.29536 3.36373C9.03273 2.90272 8.94147 2.36372 9.03769 1.84194C9.13392 1.32016 9.41144 0.849171 9.82125 0.512164C10.2311 0.175156 10.7468 -0.00618829 11.2773 0.000161256C11.8078 0.00651081 12.3191 0.200146 12.7207 0.546864C13.1223 0.893583 13.3885 1.37108 13.4722 1.89501C13.5559 2.41894 13.4518 2.9556 13.1782 3.4102C12.9046 3.8648 12.4792 4.2081 11.977 4.37944C11.851 5.95644 11.239 7.00144 10.265 7.65944C9.252 8.34444 7.943 8.52944 6.855 8.67944L6.83001 8.68344C5.66001 8.84544 4.723 8.97544 4.044 9.38344C3.729 9.57344 3.482 9.81944 3.307 10.1654C3.127 10.5194 3.001 11.0214 3.001 11.7494V13.1274C3.50169 13.3044 3.92371 13.6526 4.19246 14.1106C4.4612 14.5686 4.55937 15.1069 4.46962 15.6303C4.37986 16.1537 4.10795 16.6285 3.70196 16.9708C3.29597 17.3131 2.78204 17.5008 2.251 17.5008C1.71997 17.5008 1.20604 17.3131 0.800047 16.9708C0.394056 16.6285 0.12215 16.1537 0.0323924 15.6303C-0.057365 15.1069 0.040806 14.5686 0.309553 14.1106C0.578299 13.6526 1.00032 13.3044 1.501 13.1274V4.37144C1.06222 4.21631 0.682335 3.92892 0.413691 3.54888C0.145047 3.16884 0.000864045 2.71485 0.00100462 2.24944ZM11.251 1.49944C11.1525 1.49944 11.055 1.51884 10.964 1.55653C10.873 1.59422 10.7903 1.64947 10.7207 1.71911C10.651 1.78876 10.5958 1.87143 10.5581 1.96243C10.5204 2.05342 10.501 2.15095 10.501 2.24944C10.501 2.34793 10.5204 2.44546 10.5581 2.53645C10.5958 2.62745 10.651 2.71013 10.7207 2.77977C10.7903 2.84942 10.873 2.90466 10.964 2.94235C11.055 2.98004 11.1525 2.99944 11.251 2.99944C11.4499 2.99944 11.6407 2.92042 11.7813 2.77977C11.922 2.63912 12.001 2.44835 12.001 2.24944C12.001 2.05053 11.922 1.85976 11.7813 1.71911C11.6407 1.57846 11.4499 1.49944 11.251 1.49944ZM2.251 14.4994C2.05209 14.4994 1.86133 14.5785 1.72067 14.7191C1.58002 14.8598 1.501 15.0505 1.501 15.2494C1.501 15.4484 1.58002 15.6391 1.72067 15.7798C1.86133 15.9204 2.05209 15.9994 2.251 15.9994C2.44992 15.9994 2.64068 15.9204 2.78133 15.7798C2.92199 15.6391 3.001 15.4484 3.001 15.2494C3.001 15.0505 2.92199 14.8598 2.78133 14.7191C2.64068 14.5785 2.44992 14.4994 2.251 14.4994Z" fill="white"/>
</svg>
