<svg width="20" height="20" viewBox="0 0 20 20" fill="none" xmlns="http://www.w3.org/2000/svg">
<path fill-rule="evenodd" clip-rule="evenodd" d="M9.81006 5.31012C7.32478 5.31012 5.31006 7.32484 5.31006 9.81012C5.31006 12.2954 7.32478 14.3101 9.81006 14.3101C12.2953 14.3101 14.3101 12.2954 14.3101 9.81012C14.3075 7.32591 12.2943 5.3127 9.81006 5.31012ZM9.81006 12.8101C8.1532 12.8101 6.81006 11.467 6.81006 9.81012C6.81006 8.15326 8.1532 6.81012 9.81006 6.81012C11.4669 6.81012 12.8101 8.15326 12.8101 9.81012C12.8101 11.467 11.4669 12.8101 9.81006 12.8101ZM18.0601 10.0126C18.0638 9.87762 18.0638 9.74262 18.0601 9.60762L19.4588 7.86012C19.6075 7.67405 19.659 7.42839 19.5976 7.19825C19.3683 6.33631 19.0252 5.50873 18.5776 4.73731C18.4587 4.53261 18.2502 4.39604 18.0151 4.36887L15.7913 4.12137C15.6988 4.02387 15.6051 3.93012 15.5101 3.84012L15.2476 1.61074C15.2202 1.37543 15.0832 1.16688 14.8782 1.04824C14.1065 0.601382 13.279 0.258714 12.4172 0.0291822C12.187 -0.0320439 11.9413 0.0198064 11.7554 0.16887L10.0126 1.56012C9.87756 1.56012 9.74256 1.56012 9.60756 1.56012L7.86006 0.164182C7.67399 0.0154455 7.42832 -0.0360534 7.19818 0.0254321C6.33639 0.255145 5.50886 0.598135 4.73725 1.04543C4.53255 1.16429 4.39598 1.3728 4.36881 1.60793L4.12131 3.83543C4.02381 3.92856 3.93006 4.02231 3.84006 4.11668L1.61068 4.37262C1.37537 4.4 1.16682 4.53694 1.04818 4.74199C0.601321 5.51371 0.258653 6.34122 0.0291212 7.20293C-0.032105 7.43322 0.0197453 7.6789 0.168809 7.86481L1.56006 9.60762C1.56006 9.74262 1.56006 9.87762 1.56006 10.0126L0.164121 11.7601C0.0153844 11.9462 -0.0361145 12.1919 0.0253711 12.422C0.254674 13.2839 0.597686 14.1115 1.04537 14.8829C1.16423 15.0876 1.37274 15.2242 1.60787 15.2514L3.83162 15.4989C3.92475 15.5964 4.0185 15.6901 4.11287 15.7801L4.37256 18.0095C4.39994 18.2448 4.53688 18.4534 4.74193 18.572C5.51365 19.0189 6.34116 19.3615 7.20287 19.5911C7.43316 19.6523 7.67884 19.6004 7.86475 19.4514L9.60756 18.0601C9.74256 18.0639 9.87756 18.0639 10.0126 18.0601L11.7601 19.4589C11.9461 19.6076 12.1918 19.6591 12.4219 19.5976C13.2839 19.3683 14.1115 19.0253 14.8829 18.5776C15.0876 18.4588 15.2241 18.2503 15.2513 18.0151L15.4988 15.7914C15.5963 15.6989 15.6901 15.6051 15.7801 15.5101L18.0094 15.2476C18.2447 15.2202 18.4533 15.0833 18.5719 14.8782C19.0188 14.1065 19.3615 13.279 19.591 12.4173C19.6522 12.187 19.6004 11.9413 19.4513 11.7554L18.0601 10.0126ZM16.5507 9.40324C16.5666 9.67426 16.5666 9.94598 16.5507 10.217C16.5395 10.4025 16.5976 10.5856 16.7138 10.7307L18.0441 12.3929C17.8915 12.8781 17.696 13.3487 17.4601 13.7992L15.3413 14.0392C15.1568 14.0597 14.9864 14.1479 14.8632 14.2867C14.6827 14.4896 14.4905 14.6818 14.2876 14.8623C14.1487 14.9856 14.0605 15.1559 14.0401 15.3404L13.8047 17.4573C13.3543 17.6934 12.8837 17.8888 12.3985 18.0414L10.7354 16.7111C10.6023 16.6047 10.437 16.5469 10.2666 16.547H10.2216C9.95061 16.5629 9.67889 16.5629 9.40787 16.547C9.22232 16.5358 9.03924 16.594 8.89412 16.7101L7.22725 18.0414C6.74212 17.8887 6.27152 17.6933 5.821 17.4573L5.581 15.3414C5.56051 15.1569 5.47233 14.9865 5.3335 14.8632C5.13054 14.6828 4.93833 14.4906 4.75787 14.2876C4.63462 14.1488 4.46426 14.0606 4.27975 14.0401L2.16287 13.8039C1.9268 13.3534 1.73134 12.8828 1.57881 12.3976L2.90912 10.7345C3.02528 10.5894 3.08342 10.4063 3.07225 10.2207C3.05631 9.94973 3.05631 9.67801 3.07225 9.40699C3.08342 9.22145 3.02528 9.03836 2.90912 8.89324L1.57881 7.22731C1.73146 6.74218 1.92691 6.27158 2.16287 5.82106L4.27881 5.58106C4.46332 5.56058 4.63368 5.47239 4.75693 5.33356C4.93739 5.1306 5.1296 4.93839 5.33256 4.75793C5.47194 4.6346 5.56049 4.46385 5.581 4.27887L5.81631 2.16293C6.26678 1.92686 6.73739 1.7314 7.22256 1.57887L8.88568 2.90918C9.0308 3.02534 9.21389 3.08348 9.39943 3.07231C9.67045 3.05637 9.94217 3.05637 10.2132 3.07231C10.3987 3.08348 10.5818 3.02534 10.7269 2.90918L12.3929 1.57887C12.878 1.73152 13.3486 1.92697 13.7991 2.16293L14.0391 4.27887C14.0596 4.46338 14.1478 4.63374 14.2866 4.75699C14.4896 4.93745 14.6818 5.12966 14.8622 5.33262C14.9855 5.47145 15.1559 5.55964 15.3404 5.58012L17.4572 5.81543C17.6933 6.2659 17.8888 6.73652 18.0413 7.22168L16.711 8.88481C16.5937 9.03115 16.5355 9.21612 16.5479 9.40324H16.5507Z" fill="white"/>
</svg>
